<svg width="170" height="81" fill="none" xmlns="http://www.w3.org/2000/svg"><rect x=".5" y=".5" width="169" height="80" rx="3.5" stroke="#2196F3"/><path d="M56.146 35.19h-.003c-2.398 0-4.342 1.727-4.342 3.858v.003c0 2.131 1.944 3.859 4.342 3.859h.003c2.398 0 4.342-1.728 4.342-3.859v-.003c0-2.13-1.944-3.858-4.342-3.858ZM88.195 33.956c-.007-2.96-1.333-5.797-3.688-7.89-2.355-2.093-5.547-3.272-8.877-3.279-3.332.005-6.525 1.184-8.882 3.277-2.356 2.094-3.683 4.931-3.69 7.892V50.28s25.134-2.488 25.137-16.32v-.003ZM43 55.636c.006 2.06.93 4.034 2.568 5.49 1.638 1.457 3.859 2.278 6.176 2.284 2.317-.006 4.537-.827 6.176-2.283 1.638-1.456 2.562-3.429 2.568-5.488V44.281S43 46.014 43 55.636Zm8.744 2.035c-.453 0-.895-.119-1.272-.343a2.108 2.108 0 0 1-.843-.913 1.826 1.826 0 0 1-.13-1.175c.088-.395.306-.758.626-1.042.32-.285.728-.479 1.172-.557a2.558 2.558 0 0 1 1.324.115c.418.154.776.415 1.027.75.252.335.386.728.386 1.13a1.84 1.84 0 0 1-.172.782 2.037 2.037 0 0 1-.496.662c-.212.19-.465.34-.744.444a2.541 2.541 0 0 1-.878.155v-.008ZM67.73 54.028v4.266h-.879v-4.266h.88Zm1.7 1.823v.685h-1.94v-.685h1.94Zm.204-1.823v.689H67.49v-.689h2.145Zm4.014 2.034v.202c0 .324-.044.615-.132.873a1.92 1.92 0 0 1-.372.659c-.16.18-.351.317-.574.413a1.83 1.83 0 0 1-.735.143c-.268 0-.513-.047-.736-.143a1.648 1.648 0 0 1-.574-.413 1.93 1.93 0 0 1-.378-.66 2.696 2.696 0 0 1-.132-.872v-.203c0-.326.044-.617.132-.873.088-.257.212-.477.372-.659.162-.181.354-.32.574-.416.223-.095.468-.143.736-.143.27 0 .514.048.735.143.223.096.414.235.574.416.162.182.287.402.375.66.09.255.135.546.135.873Zm-.888.202v-.208c0-.227-.02-.426-.061-.598a1.295 1.295 0 0 0-.182-.434.785.785 0 0 0-.293-.263.838.838 0 0 0-.395-.091c-.149 0-.28.03-.396.09a.792.792 0 0 0-.29.264 1.338 1.338 0 0 0-.178.434 2.593 2.593 0 0 0-.062.598v.208c0 .224.02.423.061.597.042.172.102.318.182.437.08.117.178.206.293.267.115.06.247.09.396.09.148 0 .28-.03.395-.09a.788.788 0 0 0 .29-.267c.078-.12.138-.265.179-.437.04-.173.061-.373.061-.597Zm3.742.914a.565.565 0 0 0-.035-.205.387.387 0 0 0-.124-.17 1.089 1.089 0 0 0-.254-.155 3.587 3.587 0 0 0-.425-.159 5.377 5.377 0 0 1-.551-.21 2.265 2.265 0 0 1-.457-.273 1.23 1.23 0 0 1-.31-.366 1.01 1.01 0 0 1-.112-.484c0-.178.04-.339.117-.483.078-.147.188-.272.328-.375.141-.106.307-.187.498-.243.194-.057.406-.085.636-.085.315 0 .589.056.823.17.235.113.416.268.545.465.131.198.197.423.197.677h-.873a.659.659 0 0 0-.08-.328.535.535 0 0 0-.234-.226.835.835 0 0 0-.392-.081.908.908 0 0 0-.381.07.507.507 0 0 0-.229.184.455.455 0 0 0-.076.258c0 .072.018.138.053.197a.592.592 0 0 0 .164.163c.072.051.16.1.266.144.106.045.228.089.367.132.232.07.436.15.612.237a1.9 1.9 0 0 1 .445.296c.12.11.21.233.27.372.06.139.09.296.09.472a1.024 1.024 0 0 1-.422.87c-.136.102-.3.179-.489.231-.189.053-.4.08-.635.08a2.41 2.41 0 0 1-.624-.083 1.894 1.894 0 0 1-.56-.254 1.286 1.286 0 0 1-.398-.434c-.1-.176-.15-.384-.15-.624h.882c0 .133.02.245.062.337a.563.563 0 0 0 .172.223.744.744 0 0 0 .27.123c.105.025.22.038.346.038a.939.939 0 0 0 .375-.065.463.463 0 0 0 .293-.436Zm3.383-3.15v4.266h-.876v-4.266h.876Zm1.313 0v.689h-3.48v-.689h3.48Zm3.363 3.58v.686h-2.27v-.686h2.27Zm-1.983-3.58v4.266h-.88v-4.266h.88Zm1.687 1.738v.668h-1.974v-.668h1.974Zm.293-1.738v.689h-2.267v-.689h2.267Zm.516 0h1.59c.327 0 .607.05.842.147.236.098.418.242.544.433.127.192.19.427.19.707 0 .228-.038.424-.116.588a1.103 1.103 0 0 1-.325.407 1.685 1.685 0 0 1-.49.258l-.278.147h-1.383l-.006-.686h1.029a.804.804 0 0 0 .383-.082.538.538 0 0 0 .229-.228.705.705 0 0 0 .079-.34.771.771 0 0 0-.076-.355.514.514 0 0 0-.232-.228.855.855 0 0 0-.39-.08h-.711v3.578h-.88v-4.266Zm2.385 4.266-.973-1.901.929-.006.984 1.866v.04h-.94Zm4.614-1.52h-1.087v-.686h1.087a.892.892 0 0 0 .41-.082.526.526 0 0 0 .231-.234.858.858 0 0 0 0-.691.591.591 0 0 0-.23-.265.76.76 0 0 0-.411-.1h-.782v3.578h-.88v-4.266h1.662c.334 0 .62.06.858.182.24.12.424.284.551.495.127.211.19.452.19.724 0 .275-.063.513-.19.715-.127.2-.31.356-.55.465-.239.11-.525.164-.86.164Zm5.068.834v.686h-2.27v-.686h2.27Zm-1.983-3.58v4.266h-.879v-4.266h.879Zm1.687 1.738v.668h-1.974v-.668h1.974Zm.293-1.738v.689h-2.267v-.689h2.267Zm2.482 0v4.266h-.876v-4.266h.876Zm1.312 0v.689h-3.48v-.689h3.48Zm3.364 3.58v.686h-2.271v-.686h2.271Zm-1.984-3.58v4.266h-.879v-4.266h.879ZM104 55.766v.668h-1.975v-.668H104Zm.293-1.738v.689h-2.268v-.689h2.268Zm.515 0h1.591c.326 0 .607.05.841.147.236.098.418.242.545.433.127.192.19.427.19.707 0 .228-.039.424-.117.588a1.096 1.096 0 0 1-.325.407 1.696 1.696 0 0 1-.489.258l-.279.147h-1.382l-.006-.686h1.028a.806.806 0 0 0 .384-.082.54.54 0 0 0 .228-.228.702.702 0 0 0 .079-.34.769.769 0 0 0-.076-.355.516.516 0 0 0-.231-.228.858.858 0 0 0-.39-.08h-.712v3.578h-.879v-4.266Zm2.385 4.266-.973-1.901.929-.006.984 1.866v.04h-.94Zm3.68-1.116a.574.574 0 0 0-.035-.205.396.396 0 0 0-.123-.17 1.108 1.108 0 0 0-.255-.155 3.62 3.62 0 0 0-.425-.159 5.345 5.345 0 0 1-.551-.21 2.264 2.264 0 0 1-.457-.273 1.24 1.24 0 0 1-.311-.366 1.011 1.011 0 0 1-.111-.484 1 1 0 0 1 .117-.483c.078-.147.188-.272.328-.375a1.56 1.56 0 0 1 .499-.243c.193-.057.405-.085.635-.085.315 0 .589.056.824.17.234.113.416.268.544.465.131.198.197.423.197.677h-.873a.666.666 0 0 0-.079-.328.535.535 0 0 0-.235-.226.832.832 0 0 0-.392-.081.905.905 0 0 0-.381.07.508.508 0 0 0-.229.184.452.452 0 0 0-.076.258c0 .072.018.138.053.197a.595.595 0 0 0 .164.163c.072.051.161.1.266.144.106.045.228.089.367.132.232.07.436.15.612.237.178.088.326.187.445.296.119.11.209.233.27.372.06.139.091.296.091.472 0 .185-.036.351-.109.498-.072.146-.177.27-.313.372-.137.102-.3.179-.489.231-.19.053-.402.08-.636.08a2.41 2.41 0 0 1-.624-.083 1.898 1.898 0 0 1-.56-.254 1.277 1.277 0 0 1-.398-.434c-.1-.176-.15-.384-.15-.624h.882c0 .133.021.245.062.337a.557.557 0 0 0 .173.223.743.743 0 0 0 .269.123c.106.025.221.038.346.038a.94.94 0 0 0 .375-.065.46.46 0 0 0 .293-.436Z" fill="#2196F3"/></svg>