<svg width="170" height="81" fill="none" xmlns="http://www.w3.org/2000/svg"><rect x=".5" y=".5" width="169" height="80" rx="3.5" stroke="#AFB1B8"/><g clip-path="url(#a)" fill="#AFB1B8"><path fill-rule="evenodd" clip-rule="evenodd" d="M82.114 20.021h-.137a17.43 17.43 0 0 0-.63-.022h-.455c-.397 0-.802.01-1.204.03a.628.628 0 0 0-.091 0 28.276 28.276 0 0 0-10.516 2.683l-.433.208v22.142l1.012-.344c.888-.305 1.834-.58 2.813-.834a34.334 34.334 0 0 1 8.095-1.075v2.909c-.362.002-.713.012-1.065.03h-.084a32.36 32.36 0 0 0-6.228.956 31.626 31.626 0 0 0-7.42 2.892V21.199a29.725 29.725 0 0 1 7.785-3.166 29.793 29.793 0 0 1 7.336-.946h.427c.511.013 1.01.036 1.478.071 1.233.087 2.456.282 3.655.582v2.864a22.626 22.626 0 0 0-3.614-.54c-.247-.021-.494-.043-.724-.043Zm5.039 2.927c.635.049 1.292.072 1.958.072a31.473 31.473 0 0 0 7.713-.99 31.767 31.767 0 0 0 7.417-2.893v27.89a29.809 29.809 0 0 1-7.786 3.166 29.938 29.938 0 0 1-7.337.944 22.4 22.4 0 0 1-5.565-.657V22.41c.43.098.873.19 1.323.266.739.125 1.518.216 2.277.272Zm14.194.216-1.012.341c-.93.313-1.87.593-2.813.842a34.268 34.268 0 0 1-8.406 1.078c-.66 0-1.267-.018-1.854-.056l-.807-.053V48.093l.693.06c.642.057 1.305.085 1.973.085a26.884 26.884 0 0 0 6.62-.857 27.746 27.746 0 0 0 5.173-1.86l.433-.208V23.164Z"/><path d="M67.737 59.3a1.492 1.492 0 0 0-1.126-.456 1.676 1.676 0 0 0-.65.122 1.464 1.464 0 0 0-.832.842c-.08.2-.119.413-.116.628v3.794a1.79 1.79 0 0 0 .149.778c.09.195.219.368.38.509.151.127.329.22.52.27.185.051.376.078.567.078.211.002.42-.043.612-.132a1.601 1.601 0 0 0 .96-1.465v-.424h-.993v.338a.88.88 0 0 1-.058.338.607.607 0 0 1-.144.214.697.697 0 0 1-.415.145.504.504 0 0 1-.465-.204.898.898 0 0 1-.132-.508v-3.538c-.006-.196.036-.39.122-.567a.507.507 0 0 1 .485-.229.527.527 0 0 1 .443.214.806.806 0 0 1 .164.509v.328h.982v-.387a1.79 1.79 0 0 0-.121-.664 1.563 1.563 0 0 0-.332-.534ZM73.629 59.256a1.765 1.765 0 0 0-1.128-.417c-.202.001-.403.037-.592.107a1.56 1.56 0 0 0-.908.842c-.1.231-.15.482-.145.735v3.638c-.006.256.043.51.145.745.09.196.22.37.384.51.152.14.33.249.524.32a1.711 1.711 0 0 0 1.72-.32c.158-.143.285-.316.374-.51.102-.234.151-.489.144-.745v-3.639a1.77 1.77 0 0 0-.144-.734 1.641 1.641 0 0 0-.374-.532Zm-.463 4.905a.656.656 0 0 1-.197.527.726.726 0 0 1-.934 0 .65.65 0 0 1-.197-.527v-3.639a.653.653 0 0 1 .197-.526.726.726 0 0 1 .934 0 .653.653 0 0 1 .197.526v3.64ZM81.367 65.786v-6.888h-.953l-1.253 3.646h-.017l-1.263-3.646h-.943v6.888h.984v-4.19h.017l.964 2.962h.491l.971-2.962h.018v4.19h.984ZM86.958 59.38c-.151-.17-.343-.299-.556-.376a2.184 2.184 0 0 0-.714-.106h-1.462v6.888h.981v-2.69h.506c.307.014.611-.05.886-.188a1.43 1.43 0 0 0 .539-.527c.113-.183.19-.387.225-.6.038-.259.056-.52.053-.783.01-.33-.023-.661-.096-.984a1.467 1.467 0 0 0-.362-.633Zm-.506 2.101a.866.866 0 0 1-.091.359.553.553 0 0 1-.253.241 1.007 1.007 0 0 1-.463.087h-.448v-2.342h.506a.941.941 0 0 1 .443.086.555.555 0 0 1 .23.255c.054.12.083.251.086.383v.458c0 .16.01.326 0 .473h-.01ZM91.608 58.898h-.805l-1.518 6.888h.982l.288-1.48h1.338l.289 1.48h.981l-1.555-6.888Zm-.906 4.47.483-2.497h.018l.48 2.497h-.981ZM97.95 63.048h-.018l-1.482-4.15h-.944v6.888h.981v-4.142h.02l1.5 4.142h.924v-6.888h-.981v4.15ZM103.948 58.898l-.79 2.738h-.02l-.789-2.738h-1.04l1.348 3.977v2.911h.982v-2.911l1.348-3.977h-1.039Z"/></g><defs><clipPath id="a"><path fill="#fff" transform="translate(32 14.087)" d="M0 0h106v52.826H0z"/></clipPath></defs></svg>